<svg width="467" height="468" viewBox="0 0 467 468" fill="none" xmlns="http://www.w3.org/2000/svg">
<path d="M467 417.631V350.917C467 342.071 463.486 333.586 457.231 327.328C450.973 321.074 442.488 317.56 433.643 317.56H33.3571C24.5116 317.56 16.0267 321.074 9.76888 327.328C3.51441 333.587 0 342.071 0 350.917L0 417.631C0 430.903 5.27157 443.628 14.6533 453.013C24.0388 462.395 36.7634 467.667 50.0357 467.667H416.964C430.237 467.667 442.961 462.395 452.347 453.013C461.728 443.628 467 430.903 467 417.631ZM50.0357 434.31C45.6129 434.31 41.3688 432.552 38.2416 429.425C35.1144 426.298 33.3571 422.054 33.3571 417.631L33.3571 350.917H433.643V417.631C433.643 422.054 431.886 426.298 428.758 429.425C425.631 432.552 421.387 434.31 416.964 434.31H50.0357Z" fill="black"/>
<path d="M0 267.524C0 276.37 3.51441 284.854 9.76888 291.112C16.0271 297.367 24.5118 300.881 33.3571 300.881H433.643C442.488 300.881 450.973 297.367 457.231 291.112C463.486 284.854 467 276.369 467 267.524V200.81C467 191.964 463.486 183.479 457.231 177.221C450.973 170.967 442.488 167.453 433.643 167.453L33.3571 167.453C24.5116 167.453 16.0267 170.967 9.76888 177.221C3.51441 183.48 0 191.964 0 200.81L0 267.524ZM433.643 200.81V267.524H33.3571L33.3571 200.81L433.643 200.81Z" fill="black"/>
<path d="M0 50.7025L0 117.417C0 126.262 3.51441 134.747 9.76888 141.005C16.0271 147.26 24.5118 150.774 33.3571 150.774L433.643 150.774C442.488 150.774 450.973 147.26 457.231 141.005C463.486 134.747 467 126.262 467 117.417V50.7025C467 37.4302 461.728 24.7058 452.347 15.3201C442.961 5.93836 430.237 0.666779 416.964 0.666779L50.0357 0.666779C36.7634 0.666779 24.0391 5.93836 14.6533 15.3201C5.27157 24.7056 0 37.4302 0 50.7025ZM416.964 34.0239C421.387 34.0239 425.631 35.7812 428.758 38.9084C431.886 42.0355 433.643 46.2797 433.643 50.7025V117.417L33.3571 117.417L33.3571 50.7025C33.3571 46.2797 35.1144 42.0355 38.2416 38.9084C41.3688 35.7812 45.6129 34.0239 50.0357 34.0239L416.964 34.0239Z" fill="black"/>
</svg>
