<svg width="468" height="468" viewBox="0 0 468 468" fill="none" xmlns="http://www.w3.org/2000/svg">
<path d="M156.797 0H44.7971C32.9168 0 21.5211 4.72399 13.1197 13.1251C4.71866 21.5261 0 32.9224 0 44.8024V156.802C0 168.683 4.7188 180.078 13.1197 188.48C21.5208 196.881 32.9171 201.605 44.7971 201.605H156.797C168.683 201.605 180.073 196.881 188.48 188.48C196.881 180.079 201.599 168.682 201.599 156.802V44.8024C201.599 32.9221 196.881 21.5264 188.48 13.1251C180.073 4.72399 168.682 0 156.797 0ZM171.729 156.8C171.729 160.758 170.156 164.56 167.359 167.357C164.557 170.159 160.76 171.732 156.797 171.732H44.7968C36.552 171.732 29.8648 165.045 29.8648 156.8V44.8003C29.8648 36.5503 36.5523 29.8683 44.7968 29.8683H156.797C160.76 29.8683 164.557 31.4412 167.359 34.238C170.156 37.0401 171.729 40.8369 171.729 44.8005V156.8Z" fill="black"/>
<path d="M422.757 0H310.757C298.877 0 287.481 4.72399 279.08 13.1251C270.679 21.5261 265.955 32.9224 265.955 44.8024V156.802C265.955 168.683 270.679 180.078 279.08 188.48C287.481 196.881 298.877 201.605 310.757 201.605H422.757C434.637 201.605 446.033 196.881 454.434 188.48C462.835 180.079 467.559 168.682 467.559 156.802V44.8024C467.559 32.9221 462.835 21.5264 454.434 13.1251C446.033 4.72373 434.637 0 422.757 0ZM437.689 156.8C437.689 160.758 436.116 164.56 433.319 167.357C430.517 170.159 426.72 171.732 422.757 171.732H310.757C302.512 171.732 295.825 165.045 295.825 156.8V44.8003C295.825 36.5503 302.512 29.8683 310.757 29.8683H422.757C426.72 29.8683 430.517 31.4412 433.319 34.238C436.116 37.0401 437.689 40.8369 437.689 44.8005V156.8Z" fill="black"/>
<path d="M156.797 265.96H44.7971C32.9168 265.96 21.5211 270.679 13.1197 279.08C4.71866 287.486 0 298.877 0 310.762V422.762C0 434.643 4.7188 446.038 13.1197 454.44C21.5208 462.841 32.9171 467.559 44.7971 467.559H156.797C168.683 467.559 180.073 462.841 188.48 454.44C196.881 446.039 201.599 434.642 201.599 422.762V310.762C201.599 298.877 196.881 287.486 188.48 279.08C180.073 270.679 168.682 265.96 156.797 265.96ZM171.729 422.76C171.729 426.718 170.156 430.515 167.359 433.317C164.557 436.119 160.76 437.692 156.797 437.692H44.7968C36.552 437.692 29.8648 431.005 29.8648 422.76V310.76C29.8648 302.51 36.5523 295.828 44.7968 295.828H156.797C160.76 295.828 164.557 297.401 167.359 300.198C170.156 303 171.729 306.797 171.729 310.76V422.76Z" fill="black"/>
<path d="M422.757 265.96H310.757C298.877 265.96 287.481 270.679 279.08 279.08C270.679 287.486 265.955 298.877 265.955 310.762V422.762C265.955 434.643 270.679 446.038 279.08 454.44C287.481 462.841 298.877 467.559 310.757 467.559H422.757C434.637 467.559 446.033 462.841 454.434 454.44C462.835 446.039 467.559 434.642 467.559 422.762V310.762C467.559 298.877 462.835 287.486 454.434 279.08C446.033 270.679 434.637 265.96 422.757 265.96ZM437.689 422.76C437.689 426.718 436.116 430.515 433.319 433.317C430.517 436.119 426.72 437.692 422.757 437.692H310.757C302.512 437.692 295.825 431.005 295.825 422.76V310.76C295.825 302.51 302.512 295.828 310.757 295.828H422.757C426.72 295.828 430.517 297.401 433.319 300.198C436.116 303 437.689 306.797 437.689 310.76V422.76Z" fill="black"/>
</svg>
